# xmcd
#
# Track frame offsets:
#	150
#	12962
#	22741
#	35167
#	45604
#	57965
#	69562
#	80818
#	91774
#	102662
#	113422
#	124316
#	136389
#	147643
#	158901
#	167343
#	179181
#	190344
#	201713
#	213558
#	226176
#	236402
#	247983
#	259645
#	273215
#	285651
#	292938
#	302211
#	314214
#	324553
#	336415
#
# Disc length: 4646 seconds
#
# Revision: 1
# Processed by: cddbd v1.5.1PL0 Copyright (c) Steve Scherf et al.
# Submitted via: AudioConverter v4.1 Copyright (c) Dennis Rebentrost
#
DISCID=d812241f
DTITLE=The Springfield's - 1958-1963
DYEAR=1962
DGENRE=Country
TTITLE0=Invitation To The Blues
TTITLE1=Splish Splash
TTITLE2=Talk To Me, Talk To Me
TTITLE3=Too Close For Comfort
TTITLE4=Willie And The Hand Jive
TTITLE5=Dream Lover
TTITLE6=It's Just A Matter Of Time
TTITLE7=Sea Of Love
TTITLE8=Sleepwalk
TTITLE9=So Fine
TTITLE10=Teach Me Tiger
TTITLE11=White Lightnin'
TTITLE12=A Rockin' Good Way (To Mess Around and Fall In Love)
TTITLE13=Excuse Me (I Think I've Got A Heartache)
TTITLE14=Finger Poppin' Time
TTITLE15=Image Of A Girl
TTITLE16=Let's Go Let's Go Let's Go
TTITLE17=Look At Little Sister
TTITLE18=The Twist
TTITLE19=Think
TTITLE20=I Count The Tears
TTITLE21=Please Come Home For Christmas
TTITLE22=Tender Years
TTITLE23=The Window Up Above
TTITLE24=Three Hearts In A Tangle
TTITLE25=As Long As I'm Singing
TTITLE26=Ruby Ann
TTITLE27=She Cried
TTITLE28=Silver Threads And Golden Needles
TTITLE29=Things
TTITLE30=Be My Baby
EXTD=
EXTT0=
EXTT1=
EXTT2=
EXTT3=
EXTT4=
EXTT5=
EXTT6=
EXTT7=
EXTT8=
EXTT9=
EXTT10=
EXTT11=
EXTT12=
EXTT13=
EXTT14=
EXTT15=
EXTT16=
EXTT17=
EXTT18=
EXTT19=
EXTT20=
EXTT21=
EXTT22=
EXTT23=
EXTT24=
EXTT25=
EXTT26=
EXTT27=
EXTT28=
EXTT29=
EXTT30=
PLAYORDER=
